<mxfile host="Electron" agent="Mozilla/5.0 (Windows NT 10.0; Win64; x64) AppleWebKit/537.36 (KHTML, like Gecko) draw.io/24.7.17 Chrome/128.0.6613.36 Electron/32.0.1 Safari/537.36" version="24.7.17">
  <diagram name="Page-1" id="c7558073-3199-34d8-9f00-42111426c3f3">
    <mxGraphModel dx="2021" dy="697" grid="1" gridSize="10" guides="1" tooltips="1" connect="1" arrows="1" fold="1" page="1" pageScale="1" pageWidth="826" pageHeight="1169" background="none" math="0" shadow="0">
      <root>
        <mxCell id="0" />
        <mxCell id="1" parent="0" />
        <mxCell id="gBv6j1U0ucPJLiP_LBgZ-112" style="edgeStyle=orthogonalEdgeStyle;rounded=0;orthogonalLoop=1;jettySize=auto;html=1;fillColor=#60a917;strokeColor=#2D7600;strokeWidth=3;" edge="1" parent="1" source="5" target="gBv6j1U0ucPJLiP_LBgZ-106">
          <mxGeometry relative="1" as="geometry">
            <Array as="points">
              <mxPoint x="280" y="430" />
              <mxPoint x="335" y="430" />
            </Array>
          </mxGeometry>
        </mxCell>
        <mxCell id="gBv6j1U0ucPJLiP_LBgZ-147" style="edgeStyle=orthogonalEdgeStyle;rounded=0;orthogonalLoop=1;jettySize=auto;html=1;entryX=0.5;entryY=1;entryDx=0;entryDy=0;strokeWidth=3;fillColor=#76608a;strokeColor=#432D57;" edge="1" parent="1" source="5" target="6">
          <mxGeometry relative="1" as="geometry" />
        </mxCell>
        <mxCell id="gBv6j1U0ucPJLiP_LBgZ-156" style="edgeStyle=orthogonalEdgeStyle;rounded=0;orthogonalLoop=1;jettySize=auto;html=1;entryX=0.5;entryY=0;entryDx=0;entryDy=0;strokeColor=#B09500;strokeWidth=3;align=center;verticalAlign=middle;fontFamily=Helvetica;fontSize=11;fontColor=default;labelBackgroundColor=default;startArrow=classic;startFill=1;endArrow=classic;fillColor=#e3c800;" edge="1" parent="1" source="5" target="gBv6j1U0ucPJLiP_LBgZ-131">
          <mxGeometry relative="1" as="geometry" />
        </mxCell>
        <mxCell id="5" value="Backend" style="shape=process;whiteSpace=wrap;align=center;verticalAlign=middle;size=0.0475;fontStyle=1;strokeWidth=3;labelBackgroundColor=none;" parent="1" vertex="1">
          <mxGeometry x="50.5" y="470" width="259" height="50" as="geometry" />
        </mxCell>
        <mxCell id="gBv6j1U0ucPJLiP_LBgZ-144" value="" style="edgeStyle=orthogonalEdgeStyle;rounded=0;orthogonalLoop=1;jettySize=auto;html=1;startArrow=none;startFill=0;" edge="1" parent="1" source="6" target="gBv6j1U0ucPJLiP_LBgZ-138">
          <mxGeometry relative="1" as="geometry" />
        </mxCell>
        <mxCell id="6" value="&lt;p style=&quot;margin: 0px; margin-top: 4px; text-align: center; text-decoration: underline;&quot;&gt;&lt;strong&gt;Verarbeitung&lt;br&gt;&lt;/strong&gt;&lt;/p&gt;&lt;hr&gt;&lt;p style=&quot;margin: 0px; margin-left: 8px;&quot;&gt;Verarbeitung fÃ¼r&amp;nbsp;&lt;/p&gt;&lt;p style=&quot;margin: 0px; margin-left: 8px;&quot;&gt;die Datenbank&lt;/p&gt;" style="verticalAlign=middle;align=center;overflow=fill;fontSize=12;fontFamily=Helvetica;html=1;rounded=1;fontStyle=1;strokeWidth=3;labelBackgroundColor=none;" parent="1" vertex="1">
          <mxGeometry x="130" y="306.5" width="110" height="90" as="geometry" />
        </mxCell>
        <mxCell id="gBv6j1U0ucPJLiP_LBgZ-113" style="edgeStyle=orthogonalEdgeStyle;rounded=0;orthogonalLoop=1;jettySize=auto;html=1;entryX=0.25;entryY=1;entryDx=0;entryDy=0;fillColor=#60a917;strokeColor=#2D7600;dashed=1;dashPattern=1 1;strokeWidth=3;align=center;verticalAlign=middle;fontFamily=Helvetica;fontSize=11;fontColor=default;labelBackgroundColor=default;endArrow=classic;" edge="1" parent="1" source="gBv6j1U0ucPJLiP_LBgZ-96" target="gBv6j1U0ucPJLiP_LBgZ-101">
          <mxGeometry relative="1" as="geometry">
            <Array as="points">
              <mxPoint x="608" y="438" />
              <mxPoint x="608" y="438" />
            </Array>
          </mxGeometry>
        </mxCell>
        <mxCell id="gBv6j1U0ucPJLiP_LBgZ-96" value="Frontend" style="shape=process;whiteSpace=wrap;align=center;verticalAlign=middle;size=0.0475;fontStyle=1;strokeWidth=3;labelBackgroundColor=none;" vertex="1" parent="1">
          <mxGeometry x="460" y="470" width="259" height="50" as="geometry" />
        </mxCell>
        <mxCell id="gBv6j1U0ucPJLiP_LBgZ-98" value="" style="html=1;shadow=0;dashed=0;align=center;verticalAlign=middle;shape=mxgraph.arrows2.twoWayArrow;dy=0.53;dx=29.29;strokeWidth=2;" vertex="1" parent="1">
          <mxGeometry x="320" y="483.75" width="130" height="22.5" as="geometry" />
        </mxCell>
        <mxCell id="gBv6j1U0ucPJLiP_LBgZ-99" value="WSGI" style="text;html=1;align=center;verticalAlign=middle;whiteSpace=wrap;rounded=0;" vertex="1" parent="1">
          <mxGeometry x="353" y="460" width="60" height="30" as="geometry" />
        </mxCell>
        <mxCell id="gBv6j1U0ucPJLiP_LBgZ-130" style="edgeStyle=orthogonalEdgeStyle;rounded=0;orthogonalLoop=1;jettySize=auto;html=1;entryX=0.75;entryY=0;entryDx=0;entryDy=0;strokeColor=#001DBC;strokeWidth=3;align=center;verticalAlign=middle;fontFamily=Helvetica;fontSize=11;fontColor=default;labelBackgroundColor=default;endArrow=classic;fillColor=#0050ef;" edge="1" parent="1" source="gBv6j1U0ucPJLiP_LBgZ-101" target="gBv6j1U0ucPJLiP_LBgZ-96">
          <mxGeometry relative="1" as="geometry">
            <Array as="points">
              <mxPoint x="650" y="438" />
              <mxPoint x="654" y="438" />
            </Array>
          </mxGeometry>
        </mxCell>
        <mxCell id="gBv6j1U0ucPJLiP_LBgZ-101" value="&lt;p style=&quot;margin: 0px; margin-top: 4px; text-align: center; text-decoration: underline;&quot;&gt;&lt;strong&gt;Artikelauswahl&lt;br&gt;&lt;/strong&gt;&lt;/p&gt;&lt;hr&gt;&lt;p style=&quot;margin: 0px; margin-left: 8px;&quot;&gt;Auswahl des&amp;nbsp;&lt;/p&gt;&lt;p style=&quot;margin: 0px; margin-left: 8px;&quot;&gt;Artikels und&lt;/p&gt;&lt;p style=&quot;margin: 0px; margin-left: 8px;&quot;&gt;Menge&lt;/p&gt;&lt;p style=&quot;margin: 0px; margin-left: 8px;&quot;&gt;&lt;br&gt;&lt;/p&gt;" style="verticalAlign=middle;align=center;overflow=fill;fontSize=12;fontFamily=Helvetica;html=1;rounded=1;fontStyle=1;strokeWidth=3;labelBackgroundColor=none;arcSize=0;" vertex="1" parent="1">
          <mxGeometry x="580" y="306.5" width="110" height="99" as="geometry" />
        </mxCell>
        <mxCell id="gBv6j1U0ucPJLiP_LBgZ-129" style="edgeStyle=orthogonalEdgeStyle;rounded=0;orthogonalLoop=1;jettySize=auto;html=1;exitX=0.5;exitY=1;exitDx=0;exitDy=0;fillColor=#fa6800;strokeColor=#C73500;endArrow=classic;endFill=1;strokeWidth=3;startArrow=classic;startFill=1;" edge="1" parent="1" source="gBv6j1U0ucPJLiP_LBgZ-102" target="gBv6j1U0ucPJLiP_LBgZ-96">
          <mxGeometry relative="1" as="geometry">
            <Array as="points">
              <mxPoint x="805" y="490" />
            </Array>
          </mxGeometry>
        </mxCell>
        <mxCell id="gBv6j1U0ucPJLiP_LBgZ-102" value="&lt;p style=&quot;margin: 0px; margin-top: 4px; text-align: center; text-decoration: underline;&quot;&gt;Einkaufswagen&lt;/p&gt;&lt;hr&gt;&lt;p style=&quot;margin: 0px; margin-left: 8px;&quot;&gt;Einsehen&lt;br&gt;und/oder&lt;br&gt;bestellen&lt;/p&gt;" style="verticalAlign=middle;align=center;overflow=fill;fontSize=12;fontFamily=Helvetica;html=1;rounded=1;fontStyle=1;strokeWidth=3;labelBackgroundColor=none;arcSize=0;" vertex="1" parent="1">
          <mxGeometry x="750" y="340" width="110" height="94" as="geometry" />
        </mxCell>
        <mxCell id="gBv6j1U0ucPJLiP_LBgZ-104" style="edgeStyle=orthogonalEdgeStyle;rounded=0;orthogonalLoop=1;jettySize=auto;html=1;entryX=0.25;entryY=0;entryDx=0;entryDy=0;strokeWidth=3;fillColor=#60a917;strokeColor=#2D7600;" edge="1" parent="1" source="gBv6j1U0ucPJLiP_LBgZ-103" target="gBv6j1U0ucPJLiP_LBgZ-96">
          <mxGeometry relative="1" as="geometry" />
        </mxCell>
        <mxCell id="gBv6j1U0ucPJLiP_LBgZ-103" value="Artikelsuche" style="whiteSpace=wrap;align=center;verticalAlign=middle;fontStyle=1;strokeWidth=3;labelBackgroundColor=none;" vertex="1" parent="1">
          <mxGeometry x="460" y="326" width="90" height="60" as="geometry" />
        </mxCell>
        <mxCell id="gBv6j1U0ucPJLiP_LBgZ-106" value="&lt;p style=&quot;margin: 0px; margin-top: 4px; text-align: center; text-decoration: underline;&quot;&gt;TF-IDF-Suche&lt;/p&gt;&lt;hr&gt;&lt;p style=&quot;margin: 0px; margin-left: 8px;&quot;&gt;Artikelsuche&amp;nbsp;&lt;/p&gt;&lt;p style=&quot;margin: 0px; margin-left: 8px;&quot;&gt;mittels TF-IDF&amp;nbsp;&lt;/p&gt;" style="verticalAlign=middle;align=center;overflow=fill;fontSize=12;fontFamily=Helvetica;html=1;rounded=1;fontStyle=1;strokeWidth=3;labelBackgroundColor=none;" vertex="1" parent="1">
          <mxGeometry x="280" y="306.5" width="110" height="90" as="geometry" />
        </mxCell>
        <mxCell id="gBv6j1U0ucPJLiP_LBgZ-110" style="edgeStyle=orthogonalEdgeStyle;rounded=0;orthogonalLoop=1;jettySize=auto;html=1;entryX=0.696;entryY=0.01;entryDx=0;entryDy=0;entryPerimeter=0;fillColor=#60a917;strokeColor=#2D7600;strokeWidth=3;dashed=1;dashPattern=1 1;" edge="1" parent="1" source="gBv6j1U0ucPJLiP_LBgZ-106" target="5">
          <mxGeometry relative="1" as="geometry">
            <Array as="points">
              <mxPoint x="260" y="345" />
              <mxPoint x="260" y="435" />
              <mxPoint x="231" y="435" />
            </Array>
          </mxGeometry>
        </mxCell>
        <mxCell id="gBv6j1U0ucPJLiP_LBgZ-134" style="edgeStyle=orthogonalEdgeStyle;rounded=0;orthogonalLoop=1;jettySize=auto;html=1;entryX=0;entryY=0.5;entryDx=0;entryDy=0;strokeColor=#6F0000;strokeWidth=3;align=center;verticalAlign=middle;fontFamily=Helvetica;fontSize=11;fontColor=default;labelBackgroundColor=default;endArrow=classic;fillColor=#a20025;" edge="1" parent="1" source="gBv6j1U0ucPJLiP_LBgZ-126" target="gBv6j1U0ucPJLiP_LBgZ-133">
          <mxGeometry relative="1" as="geometry" />
        </mxCell>
        <mxCell id="gBv6j1U0ucPJLiP_LBgZ-143" style="edgeStyle=orthogonalEdgeStyle;rounded=0;orthogonalLoop=1;jettySize=auto;html=1;entryX=0.25;entryY=1;entryDx=0;entryDy=0;endArrow=none;endFill=0;startArrow=classic;startFill=1;fillColor=#a20025;strokeColor=#6F0000;strokeWidth=3;align=center;verticalAlign=middle;fontFamily=Helvetica;fontSize=11;fontColor=default;labelBackgroundColor=default;" edge="1" parent="1">
          <mxGeometry relative="1" as="geometry">
            <mxPoint x="-75.17" y="460" as="sourcePoint" />
            <mxPoint x="-75.17" y="401.5" as="targetPoint" />
            <Array as="points">
              <mxPoint x="-75.17" y="440" />
              <mxPoint x="-75.17" y="440" />
            </Array>
          </mxGeometry>
        </mxCell>
        <mxCell id="gBv6j1U0ucPJLiP_LBgZ-126" value="&lt;p style=&quot;margin: 0px; margin-top: 4px; text-align: center; text-decoration: underline;&quot;&gt;&lt;strong&gt;BMO&lt;br&gt;&lt;/strong&gt;&lt;/p&gt;&lt;hr&gt;&lt;p style=&quot;margin: 0px; margin-left: 8px;&quot;&gt;&lt;b style=&quot;text-wrap: wrap;&quot;&gt;Erstellung der Box-&lt;/b&gt;&lt;b style=&quot;text-wrap: wrap; background-color: initial;&quot;&gt;Moving-Operation&lt;/b&gt;&lt;br&gt;&lt;/p&gt;" style="verticalAlign=middle;align=center;overflow=fill;fontSize=12;fontFamily=Helvetica;html=1;rounded=1;fontStyle=1;strokeWidth=3;labelBackgroundColor=none;" vertex="1" parent="1">
          <mxGeometry x="-130" y="460" width="110" height="90" as="geometry" />
        </mxCell>
        <mxCell id="gBv6j1U0ucPJLiP_LBgZ-131" value="API-Endpunkt" style="shape=process;whiteSpace=wrap;align=center;verticalAlign=middle;size=0.0475;fontStyle=1;strokeWidth=3;labelBackgroundColor=none;" vertex="1" parent="1">
          <mxGeometry x="170" y="580" width="229.5" height="50" as="geometry" />
        </mxCell>
        <mxCell id="gBv6j1U0ucPJLiP_LBgZ-135" style="edgeStyle=orthogonalEdgeStyle;rounded=0;orthogonalLoop=1;jettySize=auto;html=1;entryX=0;entryY=0.5;entryDx=0;entryDy=0;strokeColor=#6F0000;strokeWidth=3;align=center;verticalAlign=middle;fontFamily=Helvetica;fontSize=11;fontColor=default;labelBackgroundColor=default;endArrow=classic;fillColor=#a20025;" edge="1" parent="1" source="gBv6j1U0ucPJLiP_LBgZ-133" target="gBv6j1U0ucPJLiP_LBgZ-131">
          <mxGeometry relative="1" as="geometry" />
        </mxCell>
        <mxCell id="gBv6j1U0ucPJLiP_LBgZ-133" value="&lt;p style=&quot;margin: 0px; margin-top: 4px; text-align: center; text-decoration: underline;&quot;&gt;&lt;strong&gt;SPS-Anweisungen&lt;/strong&gt;&lt;/p&gt;&lt;hr&gt;&lt;p style=&quot;margin: 0px; margin-left: 8px;&quot;&gt;Umwendlung und&amp;nbsp;&lt;/p&gt;&lt;p style=&quot;margin: 0px; margin-left: 8px;&quot;&gt;Portionierung fÃ¼r&amp;nbsp;&lt;/p&gt;&lt;p style=&quot;margin: 0px; margin-left: 8px;&quot;&gt;SPS verarbeitung&lt;/p&gt;" style="verticalAlign=middle;align=center;overflow=fill;fontSize=12;fontFamily=Helvetica;html=1;rounded=1;fontStyle=1;strokeWidth=3;labelBackgroundColor=none;" vertex="1" parent="1">
          <mxGeometry x="-20" y="560" width="140" height="90" as="geometry" />
        </mxCell>
        <mxCell id="gBv6j1U0ucPJLiP_LBgZ-137" value="" style="group" vertex="1" connectable="0" parent="1">
          <mxGeometry x="-130" y="301.5" width="240" height="100" as="geometry" />
        </mxCell>
        <mxCell id="gBv6j1U0ucPJLiP_LBgZ-115" value="&lt;p style=&quot;margin: 0px; margin-top: 4px; text-align: center; text-decoration: underline;&quot;&gt;&lt;strong&gt;Einkaufswagen&lt;br&gt;&lt;/strong&gt;&lt;/p&gt;&lt;hr&gt;&lt;p style=&quot;margin: 0px; margin-left: 8px;&quot;&gt;&lt;br&gt;&lt;/p&gt;" style="verticalAlign=middle;align=center;overflow=fill;fontSize=12;fontFamily=Helvetica;html=1;rounded=1;fontStyle=1;strokeWidth=3;labelBackgroundColor=none;" vertex="1" parent="gBv6j1U0ucPJLiP_LBgZ-137">
          <mxGeometry width="240" height="100" as="geometry" />
        </mxCell>
        <mxCell id="gBv6j1U0ucPJLiP_LBgZ-118" value="" style="line;strokeWidth=1;direction=south;html=1;strokeColor=#4D4D4D;" vertex="1" parent="gBv6j1U0ucPJLiP_LBgZ-137">
          <mxGeometry x="115" y="30" width="10" height="70" as="geometry" />
        </mxCell>
        <mxCell id="gBv6j1U0ucPJLiP_LBgZ-120" value="&lt;p style=&quot;font-weight: 700; text-wrap: nowrap; margin: 0px 0px 0px 8px;&quot;&gt;Reservierung&amp;nbsp;&lt;/p&gt;&lt;p style=&quot;font-weight: 700; text-wrap: nowrap; margin: 0px 0px 0px 8px;&quot;&gt;des Artikel und&lt;br&gt;hinzf. zur&amp;nbsp;&lt;/p&gt;&lt;p style=&quot;font-weight: 700; text-wrap: nowrap; margin: 0px 0px 0px 8px;&quot;&gt;EinkaufswagenDB&lt;/p&gt;" style="text;html=1;align=center;verticalAlign=middle;whiteSpace=wrap;rounded=0;" vertex="1" parent="gBv6j1U0ucPJLiP_LBgZ-137">
          <mxGeometry x="145" y="47" width="60" height="30" as="geometry" />
        </mxCell>
        <mxCell id="gBv6j1U0ucPJLiP_LBgZ-125" value="&lt;b&gt;Bereitstellung der Einkaufswagen-daten&lt;/b&gt;" style="text;html=1;align=center;verticalAlign=middle;whiteSpace=wrap;rounded=0;fontFamily=Helvetica;fontSize=12;fontColor=default;" vertex="1" parent="gBv6j1U0ucPJLiP_LBgZ-137">
          <mxGeometry x="30" y="47" width="60" height="30" as="geometry" />
        </mxCell>
        <mxCell id="gBv6j1U0ucPJLiP_LBgZ-138" value="&lt;b&gt;Datenabank&amp;nbsp; &amp;nbsp;&amp;nbsp;&lt;/b&gt;" style="strokeWidth=2;html=1;shape=mxgraph.flowchart.direct_data;whiteSpace=wrap;" vertex="1" parent="1">
          <mxGeometry x="50.5" y="200" width="240" height="60" as="geometry" />
        </mxCell>
        <mxCell id="gBv6j1U0ucPJLiP_LBgZ-153" style="edgeStyle=orthogonalEdgeStyle;rounded=0;orthogonalLoop=1;jettySize=auto;html=1;endArrow=none;endFill=0;strokeColor=#432D57;strokeWidth=3;align=center;verticalAlign=middle;fontFamily=Helvetica;fontSize=11;fontColor=default;labelBackgroundColor=default;fillColor=#76608a;" edge="1" parent="1" source="gBv6j1U0ucPJLiP_LBgZ-140">
          <mxGeometry relative="1" as="geometry">
            <mxPoint x="640" y="570" as="targetPoint" />
          </mxGeometry>
        </mxCell>
        <mxCell id="gBv6j1U0ucPJLiP_LBgZ-140" value="Neue EintrÃ¤ge fÃ¼r Artikel, Container, ect." style="whiteSpace=wrap;align=center;verticalAlign=middle;fontStyle=1;strokeWidth=3;labelBackgroundColor=none;" vertex="1" parent="1">
          <mxGeometry x="450" y="540" width="170" height="60" as="geometry" />
        </mxCell>
        <mxCell id="gBv6j1U0ucPJLiP_LBgZ-155" style="edgeStyle=orthogonalEdgeStyle;rounded=0;orthogonalLoop=1;jettySize=auto;html=1;entryX=1;entryY=0.75;entryDx=0;entryDy=0;fillColor=#e3c800;strokeColor=#B09500;strokeWidth=3;startArrow=classic;startFill=1;" edge="1" parent="1" source="gBv6j1U0ucPJLiP_LBgZ-142" target="gBv6j1U0ucPJLiP_LBgZ-96">
          <mxGeometry relative="1" as="geometry" />
        </mxCell>
        <mxCell id="gBv6j1U0ucPJLiP_LBgZ-142" value="SPS-Dierektsteuerung" style="whiteSpace=wrap;align=center;verticalAlign=middle;fontStyle=1;strokeWidth=3;labelBackgroundColor=none;" vertex="1" parent="1">
          <mxGeometry x="670" y="540" width="170" height="60" as="geometry" />
        </mxCell>
        <mxCell id="gBv6j1U0ucPJLiP_LBgZ-145" style="edgeStyle=orthogonalEdgeStyle;rounded=0;orthogonalLoop=1;jettySize=auto;html=1;entryX=0.672;entryY=1.016;entryDx=0;entryDy=0;entryPerimeter=0;startArrow=classic;startFill=1;" edge="1" parent="1" source="gBv6j1U0ucPJLiP_LBgZ-106" target="gBv6j1U0ucPJLiP_LBgZ-138">
          <mxGeometry relative="1" as="geometry" />
        </mxCell>
        <mxCell id="gBv6j1U0ucPJLiP_LBgZ-146" style="edgeStyle=orthogonalEdgeStyle;rounded=0;orthogonalLoop=1;jettySize=auto;html=1;entryX=0.276;entryY=1.016;entryDx=0;entryDy=0;entryPerimeter=0;startArrow=classic;startFill=1;" edge="1" parent="1" source="gBv6j1U0ucPJLiP_LBgZ-115" target="gBv6j1U0ucPJLiP_LBgZ-138">
          <mxGeometry relative="1" as="geometry" />
        </mxCell>
        <mxCell id="gBv6j1U0ucPJLiP_LBgZ-152" style="edgeStyle=orthogonalEdgeStyle;rounded=0;orthogonalLoop=1;jettySize=auto;html=1;strokeColor=#432D57;strokeWidth=3;align=center;verticalAlign=middle;fontFamily=Helvetica;fontSize=11;fontColor=default;labelBackgroundColor=default;endArrow=classic;endFill=1;fillColor=#76608a;" edge="1" parent="1">
          <mxGeometry relative="1" as="geometry">
            <mxPoint x="640" y="520" as="targetPoint" />
            <mxPoint x="619.99" y="652" as="sourcePoint" />
            <Array as="points">
              <mxPoint x="620" y="650" />
              <mxPoint x="640" y="650" />
            </Array>
          </mxGeometry>
        </mxCell>
        <mxCell id="gBv6j1U0ucPJLiP_LBgZ-148" value="Neues Lager erzeugen" style="whiteSpace=wrap;align=center;verticalAlign=middle;fontStyle=1;strokeWidth=3;labelBackgroundColor=none;" vertex="1" parent="1">
          <mxGeometry x="450" y="620" width="170" height="60" as="geometry" />
        </mxCell>
        <mxCell id="gBv6j1U0ucPJLiP_LBgZ-154" style="edgeStyle=orthogonalEdgeStyle;rounded=0;orthogonalLoop=1;jettySize=auto;html=1;endArrow=none;endFill=0;fillColor=#76608a;strokeColor=#432D57;strokeWidth=3;align=center;verticalAlign=middle;fontFamily=Helvetica;fontSize=11;fontColor=default;labelBackgroundColor=default;" edge="1" parent="1" source="gBv6j1U0ucPJLiP_LBgZ-149">
          <mxGeometry relative="1" as="geometry">
            <mxPoint x="640" y="650" as="targetPoint" />
          </mxGeometry>
        </mxCell>
        <mxCell id="gBv6j1U0ucPJLiP_LBgZ-149" value="Boxen und InhaltÂ &#xa;verknÃ¼pfen" style="whiteSpace=wrap;align=center;verticalAlign=middle;fontStyle=1;strokeWidth=3;labelBackgroundColor=none;" vertex="1" parent="1">
          <mxGeometry x="670" y="620" width="170" height="60" as="geometry" />
        </mxCell>
        <mxCell id="gBv6j1U0ucPJLiP_LBgZ-150" style="edgeStyle=orthogonalEdgeStyle;rounded=0;orthogonalLoop=1;jettySize=auto;html=1;entryX=0.173;entryY=0.012;entryDx=0;entryDy=0;entryPerimeter=0;strokeColor=#C73500;strokeWidth=3;align=center;verticalAlign=middle;fontFamily=Helvetica;fontSize=11;fontColor=default;labelBackgroundColor=default;startArrow=classic;startFill=1;endArrow=classic;endFill=1;fillColor=#fa6800;" edge="1" parent="1" source="gBv6j1U0ucPJLiP_LBgZ-115" target="5">
          <mxGeometry relative="1" as="geometry">
            <Array as="points">
              <mxPoint x="50" y="436" />
              <mxPoint x="95" y="436" />
            </Array>
          </mxGeometry>
        </mxCell>
        <mxCell id="gBv6j1U0ucPJLiP_LBgZ-151" style="edgeStyle=orthogonalEdgeStyle;rounded=0;orthogonalLoop=1;jettySize=auto;html=1;entryX=0.35;entryY=1.001;entryDx=0;entryDy=0;entryPerimeter=0;strokeColor=#001DBC;strokeWidth=3;align=center;verticalAlign=middle;fontFamily=Helvetica;fontSize=11;fontColor=default;labelBackgroundColor=default;endArrow=classic;fillColor=#0050ef;" edge="1" parent="1" source="5" target="gBv6j1U0ucPJLiP_LBgZ-115">
          <mxGeometry relative="1" as="geometry">
            <Array as="points">
              <mxPoint x="20" y="495" />
              <mxPoint x="20" y="436" />
              <mxPoint x="-46" y="436" />
            </Array>
          </mxGeometry>
        </mxCell>
      </root>
    </mxGraphModel>
  </diagram>
</mxfile>
